<svg xmlns="http://www.w3.org/2000/svg" width="99" height="53" fill="none" viewBox="0 0 99 53">
    <path fill="#000" d="M98.763 26.4L85.291 12.927c-.198-.198-.396-.198-.595-.099a.545.545 0 0 0-.297.496v6.835H68.153L48.143.149c-.198-.199-.594-.199-.792 0L27.44 19.96H14.66v-6.836c0-.198-.098-.396-.395-.495-.198-.099-.397 0-.595.1L.198 26.3c-.099.1-.198.298-.198.397 0 .198.1.396.297.495L13.77 40.664c.1.1.198.198.397.198h.198c.198-.099.396-.297.396-.495v-6.835h13.67l18.92 18.92c.1.1.298.198.397.198.1 0 .297-.099.396-.198l18.822-18.821h17.434v6.835c0 .198.1.396.297.495h.199c.099 0 .297-.099.396-.198l13.472-13.472c.1-.099.198-.297.198-.495.1-.198 0-.297-.198-.396zm-47.549 7.033L47.747 36.9l-3.566-3.467h7.033zm1.09-1.09c-.1 0-.1 0 0 0H14.166c-.298 0-.496.297-.496.595v6.042L1.288 26.697 13.57 14.413v6.043c0 .297.198.495.496.495h39.129l5.15 5.151-6.042 6.241zm-8.916-12.382l4.359-4.458 4.458 4.458h-8.817zm4.359 31.204l-17.83-17.732h12.877c0 .099 0 .198.1.297l4.358 4.359c.099.099.297.198.396.198.099 0 .297-.1.396-.198l11.491-11.491c.198-.198.198-.595 0-.793L48.143 14.413c-.099-.099-.198-.198-.396-.198s-.297.1-.396.198L42 19.862c-.099.099-.099.099-.099.198H29.025L47.747 1.238 67.559 21.05l5.151 5.151-24.963 24.964zm37.742-12.086v-6.042c0-.298-.297-.496-.594-.496h-16.84l5.844-5.844c.099-.1.198-.297.198-.397 0-.099-.099-.297-.198-.396l-4.656-4.656h15.652c.297 0 .594-.297.594-.594v-6.043l12.283 12.284L85.49 39.079z"/>
</svg>
